# xmcd
#
# Track frame offsets: 
#        150
#        19725
#        36937
#        56587
#        77675
#        96037
#        116987
#        128300
#        147375
#        168425
#        189307
#        211512
#
# Disc length: 3133 seconds
#
# Revision: 3
# Processed by: cddbd v1.5PL3 Copyright (c) Steve Scherf et al.
# Submitted via: ExactAudioCopy v0.95a3
#
DISCID=980c3b0c
DTITLE=林忆莲 - 非爱不可
DYEAR=2004
DGENRE=Rock
TTITLE0=不必在乎我是谁
TTITLE1=非爱不可
TTITLE2=还是不要说抱歉
TTITLE3=再生恋
TTITLE4=是情非情
TTITLE5=当爱已成往事
TTITLE6=寂寞派对
TTITLE7=让爱人去流浪
TTITLE8=醒醒
TTITLE9=给最久的人
TTITLE10=快乐的坏东西
TTITLE11=只要珍惜
EXTD=??? \nSandy Lam \n??????? \n1.??????? \n2.???? \n3.??????? \n4.??
EXTD=? \n5.???? \n6.?????? \n7.???? (???) \n8.?????? \n9.?? \n10.?????
EXTD=? \n11.?????? \n12.????\n????\n1993?5??? YEAR: 1993
EXTT0=
EXTT1=
EXTT2=
EXTT3=
EXTT4=
EXTT5=
EXTT6=
EXTT7=
EXTT8=
EXTT9=
EXTT10=
EXTT11=
PLAYORDER=
